<svg xmlns="http://www.w3.org/2000/svg" width="22.367" height="16" viewBox="0 0 22.367 16">
  <g id="noun_Home_908333" transform="translate(-1.011 -7.05)">
    <g id="Group_15" data-name="Group 15" transform="translate(1.011 7.05)">
      <path id="Path_63" data-name="Path 63" d="M23.056,14.059,12.694,7.19a.973.973,0,0,0-1,0L1.305,14.077a.581.581,0,0,0-.16.875.885.885,0,0,0,.685.279h2.9V22.4a.746.746,0,0,0,.8.652h3.7a.746.746,0,0,0,.8-.652V19.792a2.012,2.012,0,0,1,2.168-1.768,2.012,2.012,0,0,1,2.168,1.768V22.4a.746.746,0,0,0,.8.652h3.7a.746.746,0,0,0,.8-.652V15.231h2.921a.749.749,0,0,0,.8-.614A.629.629,0,0,0,23.056,14.059Z" transform="translate(-1.011 -7.05)" fill="#dcc375"/>
    </g>
  </g>
</svg>
