<svg xmlns="http://www.w3.org/2000/svg" width="66.81" height="77.105" viewBox="0 0 66.81 77.105">
  <g id="noun_Apartment_3049438" transform="translate(-1 -0.895)">
    <path id="Path_10317" data-name="Path 10317" d="M63.5,23.373V11.818l2.774,1.5.918-2.247L48.413.895,29.635,11.076l.918,2.247,2.774-1.5V23.373h-4.31V43.237H21.474V40.624c3.053-.693,5.388-4.262,5.388-8.56,0-4.792-2.9-8.691-6.465-8.691-2.248,0-4.228,1.551-5.388,3.9-1.159-2.346-3.14-3.9-5.388-3.9-3.566,0-6.465,3.9-6.465,8.691,0,4.3,2.335,7.868,5.388,8.56v2.613H3.155A2.339,2.339,0,0,0,1,45.72V48.2a2.339,2.339,0,0,0,2.155,2.483V78H67.81V23.373ZM35.482,10.65,48.413,3.639,61.344,10.65V23.373H59.189V13.441H50.568v9.932h-4.31V13.441H37.637v9.932H35.482ZM57.034,23.373h-4.31V15.924h4.31Zm-12.931,0h-4.31V15.924H44.1Zm21.551,2.483v4.966H31.172V25.856Zm-4.31,34.763h-4.31V55.652h4.31Zm-6.465-7.449v7.449H52.724V48.2H65.654V60.619H63.5V53.169ZM39.793,60.619h-4.31V55.652h4.31Zm-6.465-7.449v7.449H31.172V48.2H44.1V60.619H41.948V53.169ZM5.31,58.136h4.31V63.1H5.31Zm6.465,0h4.31V63.1h-4.31Zm4.31-7.449v4.966h-4.31V50.686ZM44.1,45.72H41.948V38.271H33.327V45.72H31.172V33.305H44.1Zm-4.31,0h-4.31V40.754h4.31ZM29.017,55.652h-4.31V50.686h4.31Zm-6.465,0h-4.31V50.686h4.31Zm-4.31,2.483h4.31V63.1h-4.31Zm6.465,0h4.31V63.1h-4.31ZM46.258,33.305h4.31V75.517h-4.31ZM61.344,45.72h-4.31V40.754h4.31Zm2.155,0V38.271H54.879V45.72H52.724V33.305H65.654V45.72ZM20.4,25.856c2.377,0,4.31,2.785,4.31,6.208,0,2.884-1.379,5.293-3.233,5.987V30.822H19.319V38.05c-1.853-.694-3.233-3.1-3.233-5.987C16.086,28.641,18.019,25.856,20.4,25.856ZM5.31,32.064c0-3.423,1.933-6.208,4.31-6.208s4.31,2.785,4.31,6.208c0,2.884-1.379,5.293-3.233,5.987V30.822H8.543V38.05C6.69,37.356,5.31,34.948,5.31,32.064Zm5.388,8.56a6.674,6.674,0,0,0,4.31-3.767,6.677,6.677,0,0,0,4.31,3.767v2.613H10.7Zm-7.543,5.1H29.017V48.2H3.155Zm6.465,4.966v4.966H5.31V50.686ZM22.551,75.517H11.776V70.551H22.551Zm2.155,0V68.068H9.621v7.449H5.31V65.585H29.017v9.932ZM31.172,63.1H44.1V75.517H41.948V68.068H33.327v7.449H31.172Zm8.621,12.415h-4.31V70.551h4.31Zm21.551,0h-4.31V70.551h4.31Zm2.155,0V68.068H54.879v7.449H52.724V63.1H65.654V75.517Z" transform="translate(0 0)" fill="#dcc375"/>
  </g>
</svg>
