<svg xmlns="http://www.w3.org/2000/svg" width="80.011" height="76.333" viewBox="0 0 80.011 76.333">
  <g id="noun_river_3280499" transform="translate(-9.994 -10)">
    <path id="Path_10338" data-name="Path 10338" d="M11,64.414H89a.955.955,0,1,0,0-1.908H66.639v-10.7h5.307a8.4,8.4,0,0,0,6.727-3.247,7.6,7.6,0,0,0,1.243-7.1L70.8,13.622a5.488,5.488,0,0,0-10.322,0L51.362,41.467a7.6,7.6,0,0,0,1.243,7.095,8.4,8.4,0,0,0,6.727,3.247h5.307v10.7H33.856V55.57h4.611a7.591,7.591,0,0,0,6.075-2.932,6.858,6.858,0,0,0,1.121-6.406L40.053,29.087a7.384,7.384,0,0,0-7.2-5.049,7.383,7.383,0,0,0-7.2,5.049L20.048,46.232a6.855,6.855,0,0,0,1.122,6.406,7.587,7.587,0,0,0,6.074,2.933h4.612v6.936H11a.955.955,0,1,0,0,1.908ZM59.332,49.9a6.392,6.392,0,0,1-5.115-2.469,5.777,5.777,0,0,1-.946-5.4L62.386,14.19a3.459,3.459,0,0,1,6.506,0l9.115,27.845a5.778,5.778,0,0,1-.946,5.4A6.392,6.392,0,0,1,71.945,49.9H66.639V44.527l3.745-3.574a.923.923,0,0,0,0-1.349,1.034,1.034,0,0,0-1.414,0l-2.331,2.225V37.118l3.149-3.005a.923.923,0,0,0,0-1.349,1.034,1.034,0,0,0-1.414,0L66.639,34.42V30.611a1,1,0,0,0-2,0V34.42L62.9,32.764a1.034,1.034,0,0,0-1.414,0,.923.923,0,0,0,0,1.349l3.149,3.005v4.711L62.308,39.6a1.034,1.034,0,0,0-1.414,0,.923.923,0,0,0,0,1.349l3.745,3.574V49.9H59.332ZM27.244,53.662a5.575,5.575,0,0,1-4.463-2.155,5.04,5.04,0,0,1-.825-4.706l5.612-17.146a5.381,5.381,0,0,1,5.287-3.71,5.382,5.382,0,0,1,5.289,3.71L43.756,46.8a5.043,5.043,0,0,1-.824,4.707,5.58,5.58,0,0,1-4.464,2.154H33.856V49.029l3.3-3.149a.923.923,0,0,0,0-1.349,1.034,1.034,0,0,0-1.414,0l-1.886,1.8V42.437l2.77-2.643a.923.923,0,0,0,0-1.349,1.034,1.034,0,0,0-1.414,0l-1.355,1.294V36.6a1,1,0,0,0-2,0v3.136L30.5,38.445a1.034,1.034,0,0,0-1.414,0,.923.923,0,0,0,0,1.349l2.771,2.643v3.894l-1.887-1.8a1.034,1.034,0,0,0-1.414,0,.923.923,0,0,0,0,1.349l3.3,3.149v4.632H27.244Z" fill="#dcc375"/>
    <path id="Path_10339" data-name="Path 10339" d="M88.222,85.211a7.5,7.5,0,0,1-11.436,0,1.068,1.068,0,0,0-1.566,0,7.5,7.5,0,0,1-11.435,0,1.03,1.03,0,0,0-1.566,0,7.5,7.5,0,0,1-11.436,0,1.068,1.068,0,0,0-1.566,0,7.5,7.5,0,0,1-11.436,0,1.068,1.068,0,0,0-1.566,0,7.5,7.5,0,0,1-11.435,0,1.03,1.03,0,0,0-1.566,0,7.5,7.5,0,0,1-11.436,0,1.032,1.032,0,0,0-1.405-.154.924.924,0,0,0-.161,1.34A9.581,9.581,0,0,0,24,87.228a9.6,9.6,0,0,0,13,0,9.6,9.6,0,0,0,13,0,9.6,9.6,0,0,0,13,0,9.6,9.6,0,0,0,13,0A9.581,9.581,0,0,0,89.788,86.4a.924.924,0,0,0-.161-1.34A1.032,1.032,0,0,0,88.222,85.211Z" transform="translate(0 -3.431)" fill="#dcc375"/>
    <path id="Path_10340" data-name="Path 10340" d="M89.627,74.336a1.032,1.032,0,0,0-1.405.154,7.5,7.5,0,0,1-11.436,0,1.068,1.068,0,0,0-1.566,0,7.5,7.5,0,0,1-11.435,0,1.03,1.03,0,0,0-1.566,0,7.5,7.5,0,0,1-11.436,0,1.068,1.068,0,0,0-1.566,0,7.5,7.5,0,0,1-11.436,0,1.068,1.068,0,0,0-1.566,0,7.5,7.5,0,0,1-11.436,0,1.03,1.03,0,0,0-1.566,0,7.5,7.5,0,0,1-11.436,0,1.032,1.032,0,0,0-1.405-.154.924.924,0,0,0-.161,1.34A9.581,9.581,0,0,0,24,76.507a9.6,9.6,0,0,0,13,0,9.6,9.6,0,0,0,13,0,9.6,9.6,0,0,0,13,0,9.6,9.6,0,0,0,13,0,9.581,9.581,0,0,0,13.785-.831A.924.924,0,0,0,89.627,74.336Z" transform="translate(0 -2.939)" fill="#dcc375"/>
  </g>
</svg>
