<svg xmlns="http://www.w3.org/2000/svg" width="75" height="75" viewBox="0 0 75 75">
  <g id="noun_Smart_Home_3048842" data-name="noun_Smart Home_3048842" transform="translate(906 344)">
    <g id="Group_4754" data-name="Group 4754" transform="translate(-906 -344)">
      <path id="Path_10330" data-name="Path 10330" d="M69.952,27H7.048A6.055,6.055,0,0,0,1,33.048V64.5a6.055,6.055,0,0,0,6.048,6.048h62.9A6.055,6.055,0,0,0,76,64.5V33.048A6.055,6.055,0,0,0,69.952,27Zm3.629,37.5a3.633,3.633,0,0,1-3.629,3.629H7.048A3.633,3.633,0,0,1,3.419,64.5V33.048a3.633,3.633,0,0,1,3.629-3.629h62.9a3.633,3.633,0,0,1,3.629,3.629Z" transform="translate(-1 4.452)" fill="#dcc375"/>
      <path id="Path_10331" data-name="Path 10331" d="M9.839,39H7.419A2.422,2.422,0,0,0,5,41.419V51.1a2.422,2.422,0,0,0,2.419,2.419H9.839A2.422,2.422,0,0,0,12.258,51.1V41.419A2.422,2.422,0,0,0,9.839,39ZM7.419,51.1V41.419H9.839V51.1Z" transform="translate(-0.161 6.968)" fill="#dcc375"/>
      <path id="Path_10332" data-name="Path 10332" d="M61.387,31H15.419A2.422,2.422,0,0,0,13,33.419V62.452a2.422,2.422,0,0,0,2.419,2.419H61.387a2.422,2.422,0,0,0,2.419-2.419V33.419A2.422,2.422,0,0,0,61.387,31ZM15.419,62.452V33.419H61.387V62.452Z" transform="translate(1.516 5.29)" fill="#dcc375"/>
      <rect id="Rectangle_2206" data-name="Rectangle 2206" width="2" height="3" transform="translate(68 47)" fill="#dcc375"/>
      <rect id="Rectangle_2207" data-name="Rectangle 2207" width="2" height="7" transform="translate(68 52)" fill="#dcc375"/>
      <path id="Path_10333" data-name="Path 10333" d="M17,41.535v5.586h2.419v12.1H41.194v-12.1h2.419V41.535L30.306,34.882ZM33.935,56.8H26.677v-1.21a3.629,3.629,0,0,1,7.258,0Zm4.839,0H36.355v-1.21a6.048,6.048,0,1,0-12.1,0V56.8H21.839V47.122H38.774Zm2.419-12.1H19.419V43.03l10.887-5.444L41.194,43.03Z" transform="translate(2.355 6.104)" fill="#dcc375"/>
      <path id="Path_10334" data-name="Path 10334" d="M41,44.677H53.1V35H41Zm2.419-7.258h7.258v4.839H43.419Z" transform="translate(7.387 6.129)" fill="#dcc375"/>
      <rect id="Rectangle_2208" data-name="Rectangle 2208" width="12" height="3" transform="translate(48 53)" fill="#dcc375"/>
      <rect id="Rectangle_2209" data-name="Rectangle 2209" width="12" height="2" transform="translate(48 58)" fill="#dcc375"/>
      <rect id="Rectangle_2210" data-name="Rectangle 2210" width="2" height="2" transform="translate(58 63)" fill="#dcc375"/>
      <rect id="Rectangle_2211" data-name="Rectangle 2211" width="8" height="2" transform="translate(48 63)" fill="#dcc375"/>
      <path id="Path_10335" data-name="Path 10335" d="M29,20.629A3.629,3.629,0,1,0,32.629,17,3.633,3.633,0,0,0,29,20.629Zm4.839,0a1.21,1.21,0,1,1-1.21-1.21A1.211,1.211,0,0,1,33.839,20.629Z" transform="translate(4.871 2.355)" fill="#dcc375"/>
      <path id="Path_10336" data-name="Path 10336" d="M24.392,12.722a14.248,14.248,0,0,1,20.828,0l.876.917L51,8.507l-.8-.835A21.136,21.136,0,0,0,34.807,1h0A21.141,21.141,0,0,0,19.414,7.673l-.8.835,4.9,5.131Zm10.415-9.3a18.665,18.665,0,0,1,12.82,5.112l-1.562,1.637a16.638,16.638,0,0,0-22.519,0L21.985,8.531A18.671,18.671,0,0,1,34.807,3.419Z" transform="translate(2.694 -1)" fill="#dcc375"/>
      <path id="Path_10337" data-name="Path 10337" d="M38.838,19.224,43.893,13.9l-.791-.833a12.767,12.767,0,0,0-18.69,0l-.791.833,5.055,5.323.877-.924a5.727,5.727,0,0,1,8.41,0Zm-10.1-3.445L27,13.945a10.308,10.308,0,0,1,13.518,0l-1.742,1.834a8.116,8.116,0,0,0-10.034,0Z" transform="translate(3.743 0.677)" fill="#dcc375"/>
    </g>
  </g>
</svg>
