<svg xmlns="http://www.w3.org/2000/svg" xmlns:xlink="http://www.w3.org/1999/xlink" width="322.442" height="32.356" viewBox="0 0 322.442 32.356">
  <defs>
    <linearGradient id="linear-gradient" x1="-0.326" y1="0.502" x2="15.731" y2="0.469" gradientUnits="objectBoundingBox">
      <stop offset="0" stop-color="#8d5f00"/>
      <stop offset="0" stop-color="#b8881e"/>
      <stop offset="0.228" stop-color="#fad27a"/>
      <stop offset="0.414" stop-color="#eac063"/>
      <stop offset="0.586" stop-color="#aa8121"/>
      <stop offset="0.772" stop-color="#d3a84e"/>
      <stop offset="1" stop-color="#fffbaa"/>
    </linearGradient>
    <linearGradient id="linear-gradient-2" x1="-1.365" y1="0.504" x2="13.859" y2="0.471" xlink:href="#linear-gradient"/>
    <linearGradient id="linear-gradient-3" x1="-2.439" y1="0.506" x2="12.785" y2="0.473" xlink:href="#linear-gradient"/>
    <linearGradient id="linear-gradient-4" x1="-10.839" y1="0.535" x2="35.878" y2="0.391" xlink:href="#linear-gradient"/>
    <linearGradient id="linear-gradient-5" x1="-3.955" y1="0.51" x2="11.269" y2="0.477" xlink:href="#linear-gradient"/>
    <linearGradient id="linear-gradient-6" x1="-5.029" y1="0.512" x2="10.195" y2="0.479" xlink:href="#linear-gradient"/>
    <linearGradient id="linear-gradient-7" x1="-6.103" y1="0.514" x2="9.121" y2="0.481" xlink:href="#linear-gradient"/>
    <linearGradient id="linear-gradient-8" x1="-22.082" y1="0.569" x2="24.629" y2="0.426" xlink:href="#linear-gradient"/>
    <linearGradient id="linear-gradient-9" x1="-7.62" y1="0.518" x2="7.604" y2="0.485" xlink:href="#linear-gradient"/>
    <linearGradient id="linear-gradient-10" x1="-8.694" y1="0.52" x2="6.53" y2="0.487" xlink:href="#linear-gradient"/>
    <linearGradient id="linear-gradient-11" x1="-9.768" y1="0.522" x2="5.456" y2="0.489" xlink:href="#linear-gradient"/>
    <linearGradient id="linear-gradient-12" x1="-8.16" y1="0.526" x2="2.995" y2="0.492" xlink:href="#linear-gradient"/>
    <linearGradient id="linear-gradient-13" x1="-10.709" y1="0.529" x2="2.221" y2="0.496" xlink:href="#linear-gradient"/>
    <linearGradient id="linear-gradient-14" x1="-11.478" y1="0.532" x2="0.961" y2="0.498" xlink:href="#linear-gradient"/>
  </defs>
  <g id="Group_4905" data-name="Group 4905" transform="translate(0)">
    <path id="Path_11554" data-name="Path 11554" d="M-1341.739,106.684a2.091,2.091,0,0,1,1.576.6,2.17,2.17,0,0,1,.578,1.576v3.911h-20.432V110.6a4.256,4.256,0,0,1,.24-1.347,3.29,3.29,0,0,1,.839-1.305l8.381-9.191q1.077-1.172,1.875-2.238a14,14,0,0,0,1.317-2.1,9.992,9.992,0,0,0,.778-2.064,8.935,8.935,0,0,0,.26-2.184,4.477,4.477,0,0,0-.828-2.9,3.075,3.075,0,0,0-2.524-1.01,3.5,3.5,0,0,0-2.325.793,4.058,4.058,0,0,0-1.307,1.967,2.81,2.81,0,0,1-1.1,1.586,2.9,2.9,0,0,1-1.935.174l-3.273-.631a12.615,12.615,0,0,1,1.227-4.129,9.8,9.8,0,0,1,2.255-2.933,8.893,8.893,0,0,1,3.083-1.75,11.794,11.794,0,0,1,3.732-.576,10.469,10.469,0,0,1,3.881.684,8.584,8.584,0,0,1,2.943,1.9,8.23,8.23,0,0,1,1.866,2.9,10.223,10.223,0,0,1,.648,3.705,11.063,11.063,0,0,1-.448,3.216,13.229,13.229,0,0,1-1.227,2.813,19.594,19.594,0,0,1-1.806,2.587q-1.028,1.25-2.186,2.532l-5.687,6.345a15.552,15.552,0,0,1,2.175-.564,11.188,11.188,0,0,1,2-.2Z" transform="translate(1360.018 -80.76)" fill="url(#linear-gradient)"/>
    <path id="Path_11555" data-name="Path 11555" d="M-1313.44,96.928a27.953,27.953,0,0,1-.818,7.192,15.356,15.356,0,0,1-2.266,5.041,9.3,9.3,0,0,1-3.432,2.976,9.588,9.588,0,0,1-4.3.978,9.466,9.466,0,0,1-4.28-.978,9.264,9.264,0,0,1-3.4-2.976,15.289,15.289,0,0,1-2.245-5.041,28.227,28.227,0,0,1-.809-7.192,28.232,28.232,0,0,1,.809-7.193,15.289,15.289,0,0,1,2.245-5.041,9.176,9.176,0,0,1,3.4-2.966,9.566,9.566,0,0,1,4.28-.967,9.689,9.689,0,0,1,4.3.967,9.216,9.216,0,0,1,3.432,2.966,15.356,15.356,0,0,1,2.266,5.041A27.958,27.958,0,0,1-1313.44,96.928Zm-6.385,0a31.316,31.316,0,0,0-.379-5.379,11.712,11.712,0,0,0-1.008-3.292,3.84,3.84,0,0,0-1.427-1.64,3.279,3.279,0,0,0-1.616-.445,3.226,3.226,0,0,0-1.606.445,3.764,3.764,0,0,0-1.4,1.64,12.019,12.019,0,0,0-.978,3.292,32,32,0,0,0-.37,5.379,31.925,31.925,0,0,0,.37,5.388,12.178,12.178,0,0,0,.978,3.293,3.759,3.759,0,0,0,1.4,1.651,3.226,3.226,0,0,0,1.606.445,3.279,3.279,0,0,0,1.616-.445,3.834,3.834,0,0,0,1.427-1.651,11.866,11.866,0,0,0,1.008-3.293A31.244,31.244,0,0,0-1319.825,96.928Z" transform="translate(1357.737 -80.76)" fill="url(#linear-gradient-2)"/>
    <path id="Path_11556" data-name="Path 11556" d="M-1287.972,96.928a27.906,27.906,0,0,1-.819,7.192,15.337,15.337,0,0,1-2.265,5.041,9.3,9.3,0,0,1-3.432,2.976,9.588,9.588,0,0,1-4.3.978,9.469,9.469,0,0,1-4.281-.978,9.278,9.278,0,0,1-3.4-2.976,15.322,15.322,0,0,1-2.245-5.041,28.235,28.235,0,0,1-.808-7.192,28.24,28.24,0,0,1,.808-7.193,15.322,15.322,0,0,1,2.245-5.041,9.19,9.19,0,0,1,3.4-2.966,9.569,9.569,0,0,1,4.281-.967,9.689,9.689,0,0,1,4.3.967,9.216,9.216,0,0,1,3.432,2.966,15.338,15.338,0,0,1,2.265,5.041A27.912,27.912,0,0,1-1287.972,96.928Zm-6.386,0a31.315,31.315,0,0,0-.378-5.379,11.728,11.728,0,0,0-1.008-3.292,3.845,3.845,0,0,0-1.427-1.64,3.282,3.282,0,0,0-1.616-.445,3.226,3.226,0,0,0-1.607.445,3.763,3.763,0,0,0-1.4,1.64,11.98,11.98,0,0,0-.978,3.292,32,32,0,0,0-.37,5.379,31.924,31.924,0,0,0,.37,5.388,12.139,12.139,0,0,0,.978,3.293,3.758,3.758,0,0,0,1.4,1.651,3.226,3.226,0,0,0,1.607.445,3.282,3.282,0,0,0,1.616-.445,3.839,3.839,0,0,0,1.427-1.651,11.883,11.883,0,0,0,1.008-3.293A31.243,31.243,0,0,0-1294.358,96.928Z" transform="translate(1355.415 -80.76)" fill="url(#linear-gradient-3)"/>
    <path id="Path_11557" data-name="Path 11557" d="M-1283.55,111.852a3.877,3.877,0,0,1,.269-1.456,3.689,3.689,0,0,1,.739-1.173,3.493,3.493,0,0,1,1.107-.793,3.291,3.291,0,0,1,1.4-.294,3.251,3.251,0,0,1,1.377.294,3.642,3.642,0,0,1,1.117.793,3.6,3.6,0,0,1,.748,1.173,3.875,3.875,0,0,1,.269,1.456,3.959,3.959,0,0,1-.269,1.467,3.565,3.565,0,0,1-.748,1.184,3.5,3.5,0,0,1-1.117.783,3.372,3.372,0,0,1-1.377.283,3.414,3.414,0,0,1-1.4-.283,3.356,3.356,0,0,1-1.107-.783,3.651,3.651,0,0,1-.739-1.184A3.961,3.961,0,0,1-1283.55,111.852Z" transform="translate(1353.047 -83.256)" fill="url(#linear-gradient-4)"/>
    <path id="Path_11558" data-name="Path 11558" d="M-1252.011,96.928a27.912,27.912,0,0,1-.819,7.192,15.337,15.337,0,0,1-2.265,5.041,9.3,9.3,0,0,1-3.432,2.976,9.589,9.589,0,0,1-4.3.978,9.468,9.468,0,0,1-4.28-.978,9.278,9.278,0,0,1-3.4-2.976,15.316,15.316,0,0,1-2.245-5.041,28.241,28.241,0,0,1-.808-7.192,28.246,28.246,0,0,1,.808-7.193,15.317,15.317,0,0,1,2.245-5.041,9.19,9.19,0,0,1,3.4-2.966,9.568,9.568,0,0,1,4.28-.967,9.691,9.691,0,0,1,4.3.967,9.218,9.218,0,0,1,3.432,2.966,15.338,15.338,0,0,1,2.265,5.041A27.917,27.917,0,0,1-1252.011,96.928Zm-6.386,0a31.3,31.3,0,0,0-.378-5.379,11.7,11.7,0,0,0-1.009-3.292,3.84,3.84,0,0,0-1.426-1.64,3.286,3.286,0,0,0-1.616-.445,3.228,3.228,0,0,0-1.607.445,3.762,3.762,0,0,0-1.4,1.64,11.983,11.983,0,0,0-.978,3.292,32.028,32.028,0,0,0-.37,5.379,31.955,31.955,0,0,0,.37,5.388,12.142,12.142,0,0,0,.978,3.293,3.757,3.757,0,0,0,1.4,1.651,3.228,3.228,0,0,0,1.607.445,3.286,3.286,0,0,0,1.616-.445,3.834,3.834,0,0,0,1.426-1.651,11.856,11.856,0,0,0,1.009-3.293A31.231,31.231,0,0,0-1258.4,96.928Z" transform="translate(1352.136 -80.76)" fill="url(#linear-gradient-5)"/>
    <path id="Path_11559" data-name="Path 11559" d="M-1226.544,96.928a27.953,27.953,0,0,1-.818,7.192,15.356,15.356,0,0,1-2.266,5.041,9.3,9.3,0,0,1-3.432,2.976,9.587,9.587,0,0,1-4.3.978,9.466,9.466,0,0,1-4.28-.978,9.269,9.269,0,0,1-3.4-2.976,15.286,15.286,0,0,1-2.245-5.041,28.221,28.221,0,0,1-.809-7.192,28.226,28.226,0,0,1,.809-7.193,15.287,15.287,0,0,1,2.245-5.041,9.182,9.182,0,0,1,3.4-2.966,9.566,9.566,0,0,1,4.28-.967,9.689,9.689,0,0,1,4.3.967,9.208,9.208,0,0,1,3.432,2.966,15.356,15.356,0,0,1,2.266,5.041A27.958,27.958,0,0,1-1226.544,96.928Zm-6.385,0a31.215,31.215,0,0,0-.379-5.379,11.68,11.68,0,0,0-1.008-3.292,3.844,3.844,0,0,0-1.426-1.64,3.285,3.285,0,0,0-1.617-.445,3.226,3.226,0,0,0-1.606.445,3.762,3.762,0,0,0-1.4,1.64,11.95,11.95,0,0,0-.978,3.292,32,32,0,0,0-.37,5.379,31.924,31.924,0,0,0,.37,5.388,12.108,12.108,0,0,0,.978,3.293,3.757,3.757,0,0,0,1.4,1.651,3.226,3.226,0,0,0,1.606.445,3.285,3.285,0,0,0,1.617-.445,3.837,3.837,0,0,0,1.426-1.651,11.834,11.834,0,0,0,1.008-3.293A31.144,31.144,0,0,0-1232.929,96.928Z" transform="translate(1349.815 -80.76)" fill="url(#linear-gradient-6)"/>
    <path id="Path_11560" data-name="Path 11560" d="M-1201.077,96.928a27.953,27.953,0,0,1-.818,7.192,15.356,15.356,0,0,1-2.266,5.041,9.3,9.3,0,0,1-3.432,2.976,9.588,9.588,0,0,1-4.3.978,9.471,9.471,0,0,1-4.281-.978,9.269,9.269,0,0,1-3.4-2.976,15.291,15.291,0,0,1-2.245-5.041,28.232,28.232,0,0,1-.809-7.192,28.237,28.237,0,0,1,.809-7.193,15.292,15.292,0,0,1,2.245-5.041,9.182,9.182,0,0,1,3.4-2.966,9.571,9.571,0,0,1,4.281-.967,9.69,9.69,0,0,1,4.3.967,9.215,9.215,0,0,1,3.432,2.966,15.356,15.356,0,0,1,2.266,5.041A27.958,27.958,0,0,1-1201.077,96.928Zm-6.386,0a31.313,31.313,0,0,0-.378-5.379,11.7,11.7,0,0,0-1.008-3.292,3.84,3.84,0,0,0-1.427-1.64,3.279,3.279,0,0,0-1.616-.445,3.229,3.229,0,0,0-1.607.445,3.767,3.767,0,0,0-1.4,1.64,12.018,12.018,0,0,0-.978,3.292,32.012,32.012,0,0,0-.37,5.379,31.938,31.938,0,0,0,.37,5.388,12.178,12.178,0,0,0,.978,3.293,3.762,3.762,0,0,0,1.4,1.651,3.229,3.229,0,0,0,1.607.445,3.279,3.279,0,0,0,1.616-.445,3.834,3.834,0,0,0,1.427-1.651,11.859,11.859,0,0,0,1.008-3.293A31.242,31.242,0,0,0-1207.463,96.928Z" transform="translate(1347.493 -80.76)" fill="url(#linear-gradient-7)"/>
    <path id="Path_11561" data-name="Path 11561" d="M-1196.655,111.852a3.858,3.858,0,0,1,.27-1.456,3.683,3.683,0,0,1,.738-1.173,3.506,3.506,0,0,1,1.107-.793,3.292,3.292,0,0,1,1.4-.294,3.248,3.248,0,0,1,1.377.294,3.622,3.622,0,0,1,1.117.793,3.6,3.6,0,0,1,.748,1.173,3.878,3.878,0,0,1,.27,1.456,3.962,3.962,0,0,1-.27,1.467,3.567,3.567,0,0,1-.748,1.184,3.476,3.476,0,0,1-1.117.783,3.369,3.369,0,0,1-1.377.283,3.415,3.415,0,0,1-1.4-.283,3.367,3.367,0,0,1-1.107-.783,3.645,3.645,0,0,1-.738-1.184A3.942,3.942,0,0,1-1196.655,111.852Z" transform="translate(1345.126 -83.256)" fill="url(#linear-gradient-8)"/>
    <path id="Path_11562" data-name="Path 11562" d="M-1165.116,96.928a27.912,27.912,0,0,1-.819,7.192,15.335,15.335,0,0,1-2.265,5.041,9.3,9.3,0,0,1-3.432,2.976,9.588,9.588,0,0,1-4.3.978,9.469,9.469,0,0,1-4.281-.978,9.276,9.276,0,0,1-3.4-2.976,15.324,15.324,0,0,1-2.245-5.041,28.224,28.224,0,0,1-.808-7.192,28.229,28.229,0,0,1,.808-7.193,15.324,15.324,0,0,1,2.245-5.041,9.188,9.188,0,0,1,3.4-2.966,9.569,9.569,0,0,1,4.281-.967,9.69,9.69,0,0,1,4.3.967,9.215,9.215,0,0,1,3.432,2.966,15.335,15.335,0,0,1,2.265,5.041A27.917,27.917,0,0,1-1165.116,96.928Zm-6.386,0a31.326,31.326,0,0,0-.378-5.379,11.74,11.74,0,0,0-1.008-3.292,3.846,3.846,0,0,0-1.427-1.64,3.282,3.282,0,0,0-1.616-.445,3.227,3.227,0,0,0-1.607.445,3.762,3.762,0,0,0-1.4,1.64,11.984,11.984,0,0,0-.978,3.292,32,32,0,0,0-.37,5.379,31.924,31.924,0,0,0,.37,5.388,12.142,12.142,0,0,0,.978,3.293,3.757,3.757,0,0,0,1.4,1.651,3.227,3.227,0,0,0,1.607.445,3.282,3.282,0,0,0,1.616-.445,3.839,3.839,0,0,0,1.427-1.651,11.9,11.9,0,0,0,1.008-3.293A31.254,31.254,0,0,0-1171.5,96.928Z" transform="translate(1344.215 -80.76)" fill="url(#linear-gradient-9)"/>
    <path id="Path_11563" data-name="Path 11563" d="M-1139.649,96.928a27.916,27.916,0,0,1-.818,7.192,15.358,15.358,0,0,1-2.265,5.041,9.3,9.3,0,0,1-3.432,2.976,9.587,9.587,0,0,1-4.3.978,9.469,9.469,0,0,1-4.281-.978,9.278,9.278,0,0,1-3.4-2.976,15.306,15.306,0,0,1-2.245-5.041,28.229,28.229,0,0,1-.808-7.192,28.235,28.235,0,0,1,.808-7.193,15.307,15.307,0,0,1,2.245-5.041,9.19,9.19,0,0,1,3.4-2.966,9.569,9.569,0,0,1,4.281-.967,9.689,9.689,0,0,1,4.3.967,9.215,9.215,0,0,1,3.432,2.966,15.358,15.358,0,0,1,2.265,5.041A27.921,27.921,0,0,1-1139.649,96.928Zm-6.385,0a31.326,31.326,0,0,0-.378-5.379,11.709,11.709,0,0,0-1.009-3.292,3.838,3.838,0,0,0-1.426-1.64,3.284,3.284,0,0,0-1.616-.445,3.226,3.226,0,0,0-1.607.445,3.761,3.761,0,0,0-1.4,1.64,11.984,11.984,0,0,0-.978,3.292,32.012,32.012,0,0,0-.37,5.379,31.938,31.938,0,0,0,.37,5.388,12.143,12.143,0,0,0,.978,3.293,3.756,3.756,0,0,0,1.4,1.651,3.226,3.226,0,0,0,1.607.445,3.284,3.284,0,0,0,1.616-.445,3.832,3.832,0,0,0,1.426-1.651,11.864,11.864,0,0,0,1.009-3.293A31.254,31.254,0,0,0-1146.034,96.928Z" transform="translate(1341.894 -80.76)" fill="url(#linear-gradient-10)"/>
    <path id="Path_11564" data-name="Path 11564" d="M-1114.182,96.928a27.953,27.953,0,0,1-.818,7.192,15.356,15.356,0,0,1-2.266,5.041,9.3,9.3,0,0,1-3.432,2.976,9.588,9.588,0,0,1-4.3.978,9.465,9.465,0,0,1-4.28-.978,9.27,9.27,0,0,1-3.4-2.976,15.286,15.286,0,0,1-2.245-5.041,28.232,28.232,0,0,1-.809-7.192,28.237,28.237,0,0,1,.809-7.193,15.287,15.287,0,0,1,2.245-5.041,9.183,9.183,0,0,1,3.4-2.966,9.565,9.565,0,0,1,4.28-.967,9.69,9.69,0,0,1,4.3.967,9.217,9.217,0,0,1,3.432,2.966A15.356,15.356,0,0,1-1115,89.735,27.958,27.958,0,0,1-1114.182,96.928Zm-6.385,0a31.328,31.328,0,0,0-.379-5.379,11.708,11.708,0,0,0-1.008-3.292,3.845,3.845,0,0,0-1.426-1.64,3.286,3.286,0,0,0-1.617-.445,3.226,3.226,0,0,0-1.606.445,3.769,3.769,0,0,0-1.4,1.64,12.014,12.014,0,0,0-.978,3.292,32.13,32.13,0,0,0-.369,5.379,32.056,32.056,0,0,0,.369,5.388,12.173,12.173,0,0,0,.978,3.293,3.763,3.763,0,0,0,1.4,1.651,3.225,3.225,0,0,0,1.606.445,3.286,3.286,0,0,0,1.617-.445,3.839,3.839,0,0,0,1.426-1.651,11.862,11.862,0,0,0,1.008-3.293A31.256,31.256,0,0,0-1120.567,96.928Z" transform="translate(1339.572 -80.76)" fill="url(#linear-gradient-11)"/>
    <path id="Path_11565" data-name="Path 11565" d="M-1073.85,81.143-1085.5,112.8h-6.106l-11.652-31.66h5.428a2.154,2.154,0,0,1,1.416.445,2.8,2.8,0,0,1,.818,1.142l5.627,16.949q.4,1.107.779,2.422t.718,2.75q.28-1.435.628-2.75t.749-2.422l5.587-16.949a2.64,2.64,0,0,1,.788-1.1,2.084,2.084,0,0,1,1.407-.489Z" transform="translate(1336.612 -80.795)" fill="url(#linear-gradient-12)"/>
    <path id="Path_11566" data-name="Path 11566" d="M-1042.994,81.143V112.8h-3.512a2.827,2.827,0,0,1-1.307-.272,3.246,3.246,0,0,1-1.048-.945L-1062.568,92.7c.053.564.09,1.112.11,1.64s.029,1.026.029,1.489V112.8h-5.946V81.143h3.552a5.231,5.231,0,0,1,.738.044,1.762,1.762,0,0,1,.539.163,1.828,1.828,0,0,1,.459.336,5.714,5.714,0,0,1,.5.587l13.828,19.014q-.1-.913-.14-1.771t-.04-1.619V81.143Z" transform="translate(1333.432 -80.795)" fill="url(#linear-gradient-13)"/>
    <path id="Path_11567" data-name="Path 11567" d="M-1007.88,96.963a17.9,17.9,0,0,1-1.087,6.333,14.95,14.95,0,0,1-3.063,5.02,13.809,13.809,0,0,1-4.759,3.3,15.6,15.6,0,0,1-6.176,1.185h-11.293V81.143h11.293a15.525,15.525,0,0,1,6.176,1.194,14.036,14.036,0,0,1,4.759,3.3,14.838,14.838,0,0,1,3.063,5.009A17.84,17.84,0,0,1-1007.88,96.963Zm-6.9,0a14.923,14.923,0,0,0-.558-4.238,9.309,9.309,0,0,0-1.607-3.205,7.033,7.033,0,0,0-2.564-2.02,8.088,8.088,0,0,0-3.453-.707h-4.509v20.361h4.509a8.1,8.1,0,0,0,3.453-.705,7.035,7.035,0,0,0,2.564-2.021,9.31,9.31,0,0,0,1.607-3.205A15.009,15.009,0,0,0-1014.783,96.963Z" transform="translate(1330.322 -80.795)" fill="url(#linear-gradient-14)"/>
  </g>
</svg>
