<svg id="Group_4906" data-name="Group 4906" xmlns="http://www.w3.org/2000/svg" xmlns:xlink="http://www.w3.org/1999/xlink" width="321.623" height="32.356" viewBox="0 0 321.623 32.356">
  <defs>
    <linearGradient id="linear-gradient" x1="-0.368" y1="0.475" x2="17.025" y2="1.016" gradientUnits="objectBoundingBox">
      <stop offset="0" stop-color="#8d5f00"/>
      <stop offset="0" stop-color="#b8881e"/>
      <stop offset="0.228" stop-color="#fad27a"/>
      <stop offset="0.414" stop-color="#eac063"/>
      <stop offset="0.586" stop-color="#aa8121"/>
      <stop offset="0.772" stop-color="#d3a84e"/>
      <stop offset="1" stop-color="#fffbaa"/>
    </linearGradient>
    <linearGradient id="linear-gradient-2" x1="-1.337" y1="0.437" x2="13.898" y2="0.964" xlink:href="#linear-gradient"/>
    <linearGradient id="linear-gradient-3" x1="-2.409" y1="0.399" x2="12.826" y2="0.927" xlink:href="#linear-gradient"/>
    <linearGradient id="linear-gradient-4" x1="-10.827" y1="-0.056" x2="35.903" y2="2.238" xlink:href="#linear-gradient"/>
    <linearGradient id="linear-gradient-5" x1="-3.922" y1="0.347" x2="11.313" y2="0.874" xlink:href="#linear-gradient"/>
    <linearGradient id="linear-gradient-6" x1="-4.994" y1="0.31" x2="10.241" y2="0.837" xlink:href="#linear-gradient"/>
    <linearGradient id="linear-gradient-7" x1="-6.066" y1="0.273" x2="9.169" y2="0.8" xlink:href="#linear-gradient"/>
    <linearGradient id="linear-gradient-8" x1="-22.043" y1="-0.607" x2="24.681" y2="1.687" xlink:href="#linear-gradient"/>
    <linearGradient id="linear-gradient-9" x1="-7.58" y1="0.22" x2="7.655" y2="0.748" xlink:href="#linear-gradient"/>
    <linearGradient id="linear-gradient-10" x1="-8.652" y1="0.183" x2="6.584" y2="0.711" xlink:href="#linear-gradient"/>
    <linearGradient id="linear-gradient-11" x1="-9.724" y1="0.146" x2="5.511" y2="0.673" xlink:href="#linear-gradient"/>
    <linearGradient id="linear-gradient-12" x1="-8.121" y1="0.074" x2="3.034" y2="0.613" xlink:href="#linear-gradient"/>
    <linearGradient id="linear-gradient-13" x1="-10.711" y1="0.033" x2="2.28" y2="0.574" xlink:href="#linear-gradient"/>
    <linearGradient id="linear-gradient-14" x1="-11.458" y1="-0.006" x2="1.013" y2="0.534" xlink:href="#linear-gradient"/>
  </defs>
  <path id="Path_11568" data-name="Path 11568" d="M-1340.161,180.363v4.869h-16.561v-4.869h5.587v-15.97c0-.406.007-.815.019-1.229s.034-.828.061-1.249l-3.313,3a1.872,1.872,0,0,1-.868.446,2.154,2.154,0,0,1-.808,0,1.806,1.806,0,0,1-.678-.283,1.55,1.55,0,0,1-.439-.424l-1.956-2.825,9.058-8.279h5.109v26.813Z" transform="translate(1359.117 -153.224)" fill="url(#linear-gradient)"/>
  <path id="Path_11569" data-name="Path 11569" d="M-1313.44,169.358a27.943,27.943,0,0,1-.818,7.192,15.352,15.352,0,0,1-2.266,5.042,9.3,9.3,0,0,1-3.432,2.976,9.587,9.587,0,0,1-4.3.978,9.465,9.465,0,0,1-4.28-.978,9.264,9.264,0,0,1-3.4-2.976,15.286,15.286,0,0,1-2.245-5.042,28.217,28.217,0,0,1-.809-7.192,28.23,28.23,0,0,1,.809-7.193,15.272,15.272,0,0,1,2.245-5.041,9.176,9.176,0,0,1,3.4-2.966,9.566,9.566,0,0,1,4.28-.967,9.689,9.689,0,0,1,4.3.967,9.215,9.215,0,0,1,3.432,2.966,15.339,15.339,0,0,1,2.266,5.041A27.956,27.956,0,0,1-1313.44,169.358Zm-6.385,0a31.311,31.311,0,0,0-.379-5.379,11.7,11.7,0,0,0-1.008-3.292,3.84,3.84,0,0,0-1.427-1.64,3.279,3.279,0,0,0-1.616-.445,3.226,3.226,0,0,0-1.606.445,3.764,3.764,0,0,0-1.4,1.64,12.009,12.009,0,0,0-.978,3.292,31.994,31.994,0,0,0-.37,5.379,31.937,31.937,0,0,0,.37,5.389,12.178,12.178,0,0,0,.978,3.293,3.764,3.764,0,0,0,1.4,1.651,3.226,3.226,0,0,0,1.606.445,3.279,3.279,0,0,0,1.616-.445,3.839,3.839,0,0,0,1.427-1.651,11.866,11.866,0,0,0,1.008-3.293A31.255,31.255,0,0,0-1319.825,169.358Z" transform="translate(1356.918 -153.191)" fill="url(#linear-gradient-2)"/>
  <path id="Path_11570" data-name="Path 11570" d="M-1287.972,169.358a27.9,27.9,0,0,1-.819,7.192,15.334,15.334,0,0,1-2.265,5.042,9.3,9.3,0,0,1-3.432,2.976,9.587,9.587,0,0,1-4.3.978,9.469,9.469,0,0,1-4.281-.978,9.278,9.278,0,0,1-3.4-2.976,15.318,15.318,0,0,1-2.245-5.042,28.226,28.226,0,0,1-.808-7.192,28.238,28.238,0,0,1,.808-7.193,15.3,15.3,0,0,1,2.245-5.041,9.19,9.19,0,0,1,3.4-2.966,9.569,9.569,0,0,1,4.281-.967,9.689,9.689,0,0,1,4.3.967,9.216,9.216,0,0,1,3.432,2.966,15.32,15.32,0,0,1,2.265,5.041A27.909,27.909,0,0,1-1287.972,169.358Zm-6.386,0a31.311,31.311,0,0,0-.378-5.379,11.718,11.718,0,0,0-1.008-3.292,3.845,3.845,0,0,0-1.427-1.64,3.282,3.282,0,0,0-1.616-.445,3.226,3.226,0,0,0-1.607.445,3.763,3.763,0,0,0-1.4,1.64,11.97,11.97,0,0,0-.978,3.292,31.993,31.993,0,0,0-.37,5.379,31.935,31.935,0,0,0,.37,5.389,12.139,12.139,0,0,0,.978,3.293,3.763,3.763,0,0,0,1.4,1.651,3.226,3.226,0,0,0,1.607.445,3.282,3.282,0,0,0,1.616-.445,3.844,3.844,0,0,0,1.427-1.651,11.883,11.883,0,0,0,1.008-3.293A31.255,31.255,0,0,0-1294.358,169.358Z" transform="translate(1354.596 -153.191)" fill="url(#linear-gradient-3)"/>
  <path id="Path_11571" data-name="Path 11571" d="M-1283.55,184.282a3.884,3.884,0,0,1,.269-1.456,3.7,3.7,0,0,1,.739-1.172,3.493,3.493,0,0,1,1.107-.793,3.291,3.291,0,0,1,1.4-.294,3.251,3.251,0,0,1,1.377.294,3.642,3.642,0,0,1,1.117.793,3.606,3.606,0,0,1,.748,1.172,3.882,3.882,0,0,1,.269,1.456,3.96,3.96,0,0,1-.269,1.468,3.574,3.574,0,0,1-.748,1.184,3.5,3.5,0,0,1-1.117.783,3.371,3.371,0,0,1-1.377.282,3.413,3.413,0,0,1-1.4-.282,3.356,3.356,0,0,1-1.107-.783,3.661,3.661,0,0,1-.739-1.184A3.963,3.963,0,0,1-1283.55,184.282Z" transform="translate(1352.229 -155.687)" fill="url(#linear-gradient-4)"/>
  <path id="Path_11572" data-name="Path 11572" d="M-1252.011,169.358a27.9,27.9,0,0,1-.819,7.192,15.334,15.334,0,0,1-2.265,5.042,9.305,9.305,0,0,1-3.432,2.976,9.589,9.589,0,0,1-4.3.978,9.468,9.468,0,0,1-4.28-.978,9.278,9.278,0,0,1-3.4-2.976,15.313,15.313,0,0,1-2.245-5.042,28.231,28.231,0,0,1-.808-7.192,28.244,28.244,0,0,1,.808-7.193,15.3,15.3,0,0,1,2.245-5.041,9.19,9.19,0,0,1,3.4-2.966,9.568,9.568,0,0,1,4.28-.967,9.691,9.691,0,0,1,4.3.967,9.217,9.217,0,0,1,3.432,2.966,15.32,15.32,0,0,1,2.265,5.041A27.915,27.915,0,0,1-1252.011,169.358Zm-6.386,0a31.3,31.3,0,0,0-.378-5.379,11.692,11.692,0,0,0-1.009-3.292,3.84,3.84,0,0,0-1.426-1.64,3.286,3.286,0,0,0-1.616-.445,3.228,3.228,0,0,0-1.607.445,3.762,3.762,0,0,0-1.4,1.64,11.973,11.973,0,0,0-.978,3.292,32.024,32.024,0,0,0-.37,5.379,31.966,31.966,0,0,0,.37,5.389,12.142,12.142,0,0,0,.978,3.293,3.762,3.762,0,0,0,1.4,1.651,3.228,3.228,0,0,0,1.607.445,3.286,3.286,0,0,0,1.616-.445,3.839,3.839,0,0,0,1.426-1.651,11.856,11.856,0,0,0,1.009-3.293A31.243,31.243,0,0,0-1258.4,169.358Z" transform="translate(1351.318 -153.191)" fill="url(#linear-gradient-5)"/>
  <path id="Path_11573" data-name="Path 11573" d="M-1226.544,169.358a27.943,27.943,0,0,1-.818,7.192,15.352,15.352,0,0,1-2.266,5.042,9.3,9.3,0,0,1-3.432,2.976,9.587,9.587,0,0,1-4.3.978,9.465,9.465,0,0,1-4.28-.978,9.27,9.27,0,0,1-3.4-2.976,15.283,15.283,0,0,1-2.245-5.042,28.211,28.211,0,0,1-.809-7.192,28.224,28.224,0,0,1,.809-7.193,15.27,15.27,0,0,1,2.245-5.041,9.181,9.181,0,0,1,3.4-2.966,9.566,9.566,0,0,1,4.28-.967,9.688,9.688,0,0,1,4.3.967,9.207,9.207,0,0,1,3.432,2.966,15.339,15.339,0,0,1,2.266,5.041A27.956,27.956,0,0,1-1226.544,169.358Zm-6.385,0a31.211,31.211,0,0,0-.379-5.379,11.67,11.67,0,0,0-1.008-3.292,3.844,3.844,0,0,0-1.426-1.64,3.285,3.285,0,0,0-1.617-.445,3.226,3.226,0,0,0-1.606.445,3.762,3.762,0,0,0-1.4,1.64,11.94,11.94,0,0,0-.978,3.292,31.993,31.993,0,0,0-.37,5.379,31.935,31.935,0,0,0,.37,5.389,12.108,12.108,0,0,0,.978,3.293,3.762,3.762,0,0,0,1.4,1.651,3.226,3.226,0,0,0,1.606.445,3.285,3.285,0,0,0,1.617-.445,3.843,3.843,0,0,0,1.426-1.651,11.833,11.833,0,0,0,1.008-3.293A31.155,31.155,0,0,0-1232.929,169.358Z" transform="translate(1348.996 -153.191)" fill="url(#linear-gradient-6)"/>
  <path id="Path_11574" data-name="Path 11574" d="M-1201.077,169.358a27.943,27.943,0,0,1-.818,7.192,15.352,15.352,0,0,1-2.266,5.042,9.3,9.3,0,0,1-3.432,2.976,9.588,9.588,0,0,1-4.3.978,9.471,9.471,0,0,1-4.281-.978,9.27,9.27,0,0,1-3.4-2.976,15.288,15.288,0,0,1-2.245-5.042,28.222,28.222,0,0,1-.809-7.192,28.235,28.235,0,0,1,.809-7.193,15.275,15.275,0,0,1,2.245-5.041,9.181,9.181,0,0,1,3.4-2.966,9.571,9.571,0,0,1,4.281-.967,9.69,9.69,0,0,1,4.3.967,9.215,9.215,0,0,1,3.432,2.966,15.339,15.339,0,0,1,2.266,5.041A27.956,27.956,0,0,1-1201.077,169.358Zm-6.386,0a31.309,31.309,0,0,0-.378-5.379,11.694,11.694,0,0,0-1.008-3.292,3.84,3.84,0,0,0-1.427-1.64,3.279,3.279,0,0,0-1.616-.445,3.229,3.229,0,0,0-1.607.445,3.767,3.767,0,0,0-1.4,1.64,12.008,12.008,0,0,0-.978,3.292,32.007,32.007,0,0,0-.37,5.379,31.95,31.95,0,0,0,.37,5.389,12.178,12.178,0,0,0,.978,3.293,3.768,3.768,0,0,0,1.4,1.651,3.229,3.229,0,0,0,1.607.445,3.279,3.279,0,0,0,1.616-.445,3.839,3.839,0,0,0,1.427-1.651,11.858,11.858,0,0,0,1.008-3.293A31.253,31.253,0,0,0-1207.463,169.358Z" transform="translate(1346.675 -153.191)" fill="url(#linear-gradient-7)"/>
  <path id="Path_11575" data-name="Path 11575" d="M-1196.655,184.282a3.865,3.865,0,0,1,.27-1.456,3.688,3.688,0,0,1,.738-1.172,3.506,3.506,0,0,1,1.107-.793,3.292,3.292,0,0,1,1.4-.294,3.248,3.248,0,0,1,1.377.294,3.622,3.622,0,0,1,1.117.793,3.608,3.608,0,0,1,.748,1.172,3.884,3.884,0,0,1,.27,1.456,3.963,3.963,0,0,1-.27,1.468,3.576,3.576,0,0,1-.748,1.184,3.476,3.476,0,0,1-1.117.783,3.369,3.369,0,0,1-1.377.282,3.414,3.414,0,0,1-1.4-.282,3.367,3.367,0,0,1-1.107-.783,3.655,3.655,0,0,1-.738-1.184A3.944,3.944,0,0,1-1196.655,184.282Z" transform="translate(1344.307 -155.687)" fill="url(#linear-gradient-8)"/>
  <path id="Path_11576" data-name="Path 11576" d="M-1165.116,169.358a27.9,27.9,0,0,1-.819,7.192,15.332,15.332,0,0,1-2.265,5.042,9.3,9.3,0,0,1-3.432,2.976,9.588,9.588,0,0,1-4.3.978,9.469,9.469,0,0,1-4.281-.978,9.276,9.276,0,0,1-3.4-2.976,15.321,15.321,0,0,1-2.245-5.042,28.214,28.214,0,0,1-.808-7.192,28.227,28.227,0,0,1,.808-7.193,15.307,15.307,0,0,1,2.245-5.041,9.188,9.188,0,0,1,3.4-2.966,9.569,9.569,0,0,1,4.281-.967,9.69,9.69,0,0,1,4.3.967,9.214,9.214,0,0,1,3.432,2.966,15.318,15.318,0,0,1,2.265,5.041A27.915,27.915,0,0,1-1165.116,169.358Zm-6.386,0a31.321,31.321,0,0,0-.378-5.379,11.73,11.73,0,0,0-1.008-3.292,3.846,3.846,0,0,0-1.427-1.64,3.282,3.282,0,0,0-1.616-.445,3.227,3.227,0,0,0-1.607.445,3.762,3.762,0,0,0-1.4,1.64,11.974,11.974,0,0,0-.978,3.292,31.993,31.993,0,0,0-.37,5.379,31.935,31.935,0,0,0,.37,5.389,12.142,12.142,0,0,0,.978,3.293,3.762,3.762,0,0,0,1.4,1.651,3.227,3.227,0,0,0,1.607.445,3.282,3.282,0,0,0,1.616-.445,3.845,3.845,0,0,0,1.427-1.651,11.9,11.9,0,0,0,1.008-3.293A31.265,31.265,0,0,0-1171.5,169.358Z" transform="translate(1343.396 -153.191)" fill="url(#linear-gradient-9)"/>
  <path id="Path_11577" data-name="Path 11577" d="M-1139.649,169.358a27.906,27.906,0,0,1-.818,7.192,15.354,15.354,0,0,1-2.265,5.042,9.3,9.3,0,0,1-3.432,2.976,9.587,9.587,0,0,1-4.3.978,9.469,9.469,0,0,1-4.281-.978,9.278,9.278,0,0,1-3.4-2.976,15.3,15.3,0,0,1-2.245-5.042,28.22,28.22,0,0,1-.808-7.192,28.232,28.232,0,0,1,.808-7.193,15.29,15.29,0,0,1,2.245-5.041,9.19,9.19,0,0,1,3.4-2.966,9.569,9.569,0,0,1,4.281-.967,9.689,9.689,0,0,1,4.3.967,9.214,9.214,0,0,1,3.432,2.966,15.341,15.341,0,0,1,2.265,5.041A27.919,27.919,0,0,1-1139.649,169.358Zm-6.385,0a31.321,31.321,0,0,0-.378-5.379,11.7,11.7,0,0,0-1.009-3.292,3.838,3.838,0,0,0-1.426-1.64,3.284,3.284,0,0,0-1.616-.445,3.226,3.226,0,0,0-1.607.445,3.761,3.761,0,0,0-1.4,1.64,11.974,11.974,0,0,0-.978,3.292,32.007,32.007,0,0,0-.37,5.379,31.95,31.95,0,0,0,.37,5.389,12.143,12.143,0,0,0,.978,3.293,3.761,3.761,0,0,0,1.4,1.651,3.226,3.226,0,0,0,1.607.445,3.284,3.284,0,0,0,1.616-.445,3.837,3.837,0,0,0,1.426-1.651,11.864,11.864,0,0,0,1.009-3.293A31.265,31.265,0,0,0-1146.034,169.358Z" transform="translate(1341.075 -153.191)" fill="url(#linear-gradient-10)"/>
  <path id="Path_11578" data-name="Path 11578" d="M-1114.182,169.358a27.943,27.943,0,0,1-.818,7.192,15.352,15.352,0,0,1-2.266,5.042,9.3,9.3,0,0,1-3.432,2.976,9.588,9.588,0,0,1-4.3.978,9.465,9.465,0,0,1-4.28-.978,9.271,9.271,0,0,1-3.4-2.976,15.283,15.283,0,0,1-2.245-5.042,28.222,28.222,0,0,1-.809-7.192,28.235,28.235,0,0,1,.809-7.193,15.27,15.27,0,0,1,2.245-5.041,9.182,9.182,0,0,1,3.4-2.966,9.565,9.565,0,0,1,4.28-.967,9.69,9.69,0,0,1,4.3.967,9.216,9.216,0,0,1,3.432,2.966,15.339,15.339,0,0,1,2.266,5.041A27.955,27.955,0,0,1-1114.182,169.358Zm-6.385,0a31.324,31.324,0,0,0-.379-5.379,11.7,11.7,0,0,0-1.008-3.292,3.845,3.845,0,0,0-1.426-1.64A3.286,3.286,0,0,0-1125,158.6a3.225,3.225,0,0,0-1.606.445,3.769,3.769,0,0,0-1.4,1.64,12,12,0,0,0-.978,3.292,32.125,32.125,0,0,0-.369,5.379,32.068,32.068,0,0,0,.369,5.389,12.173,12.173,0,0,0,.978,3.293,3.769,3.769,0,0,0,1.4,1.651,3.226,3.226,0,0,0,1.606.445,3.286,3.286,0,0,0,1.617-.445,3.844,3.844,0,0,0,1.426-1.651,11.862,11.862,0,0,0,1.008-3.293A31.268,31.268,0,0,0-1120.567,169.358Z" transform="translate(1338.753 -153.191)" fill="url(#linear-gradient-11)"/>
  <path id="Path_11579" data-name="Path 11579" d="M-1073.85,153.574l-11.652,31.66h-6.106l-11.652-31.66h5.428a2.15,2.15,0,0,1,1.416.445,2.794,2.794,0,0,1,.818,1.142l5.627,16.949q.4,1.107.779,2.422t.718,2.749q.28-1.434.628-2.749t.749-2.422l5.587-16.949a2.64,2.64,0,0,1,.788-1.1,2.084,2.084,0,0,1,1.407-.489Z" transform="translate(1335.793 -153.226)" fill="url(#linear-gradient-12)"/>
  <path id="Path_11580" data-name="Path 11580" d="M-1042.994,153.574v31.66h-3.512a2.826,2.826,0,0,1-1.307-.272,3.246,3.246,0,0,1-1.048-.945l-13.708-18.884c.053.565.09,1.113.11,1.64s.029,1.026.029,1.489v16.972h-5.946v-31.66h3.552a5.1,5.1,0,0,1,.738.044,1.788,1.788,0,0,1,.539.162,1.855,1.855,0,0,1,.459.337,5.715,5.715,0,0,1,.5.587l13.828,19.013q-.1-.912-.14-1.77t-.04-1.62V153.574Z" transform="translate(1332.613 -153.226)" fill="url(#linear-gradient-13)"/>
  <path id="Path_11581" data-name="Path 11581" d="M-1007.88,169.393a17.9,17.9,0,0,1-1.087,6.334,14.95,14.95,0,0,1-3.063,5.02,13.809,13.809,0,0,1-4.759,3.3,15.6,15.6,0,0,1-6.176,1.185h-11.293v-31.66h11.293a15.524,15.524,0,0,1,6.176,1.194,14.046,14.046,0,0,1,4.759,3.3,14.851,14.851,0,0,1,3.063,5.01A17.839,17.839,0,0,1-1007.88,169.393Zm-6.9,0a14.921,14.921,0,0,0-.558-4.237,9.3,9.3,0,0,0-1.607-3.205,7.044,7.044,0,0,0-2.564-2.021,8.1,8.1,0,0,0-3.453-.706h-4.509v20.361h4.509a8.088,8.088,0,0,0,3.453-.706,7.033,7.033,0,0,0,2.564-2.02,9.318,9.318,0,0,0,1.607-3.205A15.011,15.011,0,0,0-1014.783,169.393Z" transform="translate(1329.503 -153.226)" fill="url(#linear-gradient-14)"/>
</svg>
