<svg xmlns="http://www.w3.org/2000/svg" width="59.84" height="76.459" viewBox="0 0 59.84 76.459">
  <g id="Group_3762" data-name="Group 3762" transform="translate(0.5 1.13)">
    <g id="noun_building_2872914" transform="translate(0 18.526)">
      <g id="Group_29" data-name="Group 29" transform="translate(0 0)">
        <g id="Group_28" data-name="Group 28" transform="translate(0 0)">
          <g id="Group_20" data-name="Group 20" transform="translate(13.949 5.072)">
            <path id="Path_399" data-name="Path 399" d="M164.054,125.231H134.888a.888.888,0,0,1-.888-.888V74.888a.888.888,0,0,1,.888-.888h29.166a.888.888,0,0,1,.888.888v49.456A.888.888,0,0,1,164.054,125.231Zm-28.279-1.775h27.391V75.775H135.775Z" transform="translate(-134 -74)" fill="#dcc375" stroke="#dcc375" stroke-width="1"/>
          </g>
          <g id="Group_21" data-name="Group 21" transform="translate(11.413)">
            <path id="Path_400" data-name="Path 400" d="M149.126,40.848H114.888A.888.888,0,0,1,114,39.96V34.888a.888.888,0,0,1,.888-.888h34.239a.888.888,0,0,1,.888.888V39.96A.888.888,0,0,1,149.126,40.848Zm-33.351-1.775h32.463v-3.3H115.775Z" transform="translate(-114 -34)" fill="#dcc375" stroke="#dcc375" stroke-width="1"/>
          </g>
          <g id="Group_22" data-name="Group 22" transform="translate(43.115 20.29)">
            <path id="Path_401" data-name="Path 401" d="M376.3,230.014H364.888a.888.888,0,0,1-.888-.888V194.888a.888.888,0,0,1,.888-.888H376.3a.888.888,0,0,1,.888.888v34.239A.888.888,0,0,1,376.3,230.014Zm-10.525-1.775h9.638V195.775h-9.638Z" transform="translate(-364 -194)" fill="#dcc375" stroke="#dcc375" stroke-width="1"/>
          </g>
          <g id="Group_23" data-name="Group 23" transform="translate(43.115 16.485)">
            <path id="Path_402" data-name="Path 402" d="M378.837,169.58H364.888a.888.888,0,0,1-.888-.888v-3.8a.888.888,0,0,1,.888-.888h13.949a.888.888,0,0,1,.888.888v3.8A.888.888,0,0,1,378.837,169.58ZM365.775,167.8h12.174v-2.029H365.775Z" transform="translate(-364 -164)" fill="#dcc375" stroke="#dcc375" stroke-width="1"/>
          </g>
          <rect id="Rectangle_42" data-name="Rectangle 42" width="2.813" height="6.564" transform="translate(18.743 9.604)" fill="#dcc375" stroke="#dcc375" stroke-width="1"/>
          <rect id="Rectangle_43" data-name="Rectangle 43" width="3.751" height="6.564" transform="translate(21.556 9.604)" fill="#dcc375" stroke="#dcc375" stroke-width="1"/>
          <rect id="Rectangle_44" data-name="Rectangle 44" width="0.938" height="6.564" transform="translate(27.182 9.604)" fill="#dcc375" stroke="#dcc375" stroke-width="1"/>
          <rect id="Rectangle_45" data-name="Rectangle 45" width="1.875" height="6.564" transform="translate(30.933 9.604)" fill="#dcc375" stroke="#dcc375" stroke-width="1"/>
          <rect id="Rectangle_46" data-name="Rectangle 46" width="1.875" height="6.564" transform="translate(34.683 9.604)" fill="#dcc375" stroke="#dcc375" stroke-width="1"/>
          <rect id="Rectangle_47" data-name="Rectangle 47" width="0.938" height="6.564" transform="translate(37.496 9.604)" fill="#dcc375" stroke="#dcc375" stroke-width="1"/>
          <rect id="Rectangle_48" data-name="Rectangle 48" width="2.813" height="6.564" transform="translate(18.743 18.043)" fill="#dcc375" stroke="#dcc375" stroke-width="1"/>
          <rect id="Rectangle_49" data-name="Rectangle 49" width="3.751" height="6.564" transform="translate(21.556 18.043)" fill="#dcc375" stroke="#dcc375" stroke-width="1"/>
          <rect id="Rectangle_50" data-name="Rectangle 50" width="0.938" height="6.564" transform="translate(27.182 18.043)" fill="#dcc375" stroke="#dcc375" stroke-width="1"/>
          <rect id="Rectangle_51" data-name="Rectangle 51" width="1.875" height="6.564" transform="translate(30.933 18.043)" fill="#dcc375" stroke="#dcc375" stroke-width="1"/>
          <rect id="Rectangle_52" data-name="Rectangle 52" width="1.875" height="6.564" transform="translate(34.683 18.043)" fill="#dcc375" stroke="#dcc375" stroke-width="1"/>
          <rect id="Rectangle_53" data-name="Rectangle 53" width="0.938" height="6.564" transform="translate(37.496 18.043)" fill="#dcc375" stroke="#dcc375" stroke-width="1"/>
          <rect id="Rectangle_54" data-name="Rectangle 54" width="2.813" height="7.501" transform="translate(18.743 24.607)" fill="#dcc375" stroke="#dcc375" stroke-width="1"/>
          <rect id="Rectangle_55" data-name="Rectangle 55" width="3.751" height="7.501" transform="translate(21.556 24.607)" fill="#dcc375" stroke="#dcc375" stroke-width="1"/>
          <rect id="Rectangle_56" data-name="Rectangle 56" width="0.938" height="7.501" transform="translate(27.182 24.607)" fill="#dcc375" stroke="#dcc375" stroke-width="1"/>
          <rect id="Rectangle_57" data-name="Rectangle 57" width="1.875" height="7.501" transform="translate(30.933 24.607)" fill="#dcc375" stroke="#dcc375" stroke-width="1"/>
          <rect id="Rectangle_58" data-name="Rectangle 58" width="1.875" height="7.501" transform="translate(34.683 24.607)" fill="#dcc375" stroke="#dcc375" stroke-width="1"/>
          <rect id="Rectangle_59" data-name="Rectangle 59" width="0.938" height="7.501" transform="translate(37.496 24.607)" fill="#dcc375" stroke="#dcc375" stroke-width="1"/>
          <rect id="Rectangle_60" data-name="Rectangle 60" width="0.938" height="3.751" transform="translate(46.873 24.607)" fill="#dcc375" stroke="#dcc375" stroke-width="1"/>
          <rect id="Rectangle_61" data-name="Rectangle 61" width="2.813" height="3.751" transform="translate(50.624 24.607)" fill="#dcc375" stroke="#dcc375" stroke-width="1"/>
          <rect id="Rectangle_62" data-name="Rectangle 62" width="0.938" height="3.751" transform="translate(46.873 28.357)" fill="#dcc375" stroke="#dcc375" stroke-width="1"/>
          <rect id="Rectangle_63" data-name="Rectangle 63" width="2.813" height="3.751" transform="translate(50.624 28.357)" fill="#dcc375" stroke="#dcc375" stroke-width="1"/>
          <rect id="Rectangle_64" data-name="Rectangle 64" width="0.938" height="1.875" transform="translate(46.873 33.045)" fill="#dcc375" stroke="#dcc375" stroke-width="1"/>
          <rect id="Rectangle_65" data-name="Rectangle 65" width="2.813" height="1.875" transform="translate(50.624 33.045)" fill="#dcc375" stroke="#dcc375" stroke-width="1"/>
          <rect id="Rectangle_66" data-name="Rectangle 66" width="0.938" height="1.875" transform="translate(46.873 36.796)" fill="#dcc375" stroke="#dcc375" stroke-width="1"/>
          <rect id="Rectangle_67" data-name="Rectangle 67" width="2.813" height="1.875" transform="translate(50.624 36.796)" fill="#dcc375" stroke="#dcc375" stroke-width="1"/>
          <rect id="Rectangle_68" data-name="Rectangle 68" width="0.938" height="1.875" transform="translate(46.873 40.547)" fill="#dcc375" stroke="#dcc375" stroke-width="1"/>
          <rect id="Rectangle_69" data-name="Rectangle 69" width="2.813" height="1.875" transform="translate(50.624 40.547)" fill="#dcc375" stroke="#dcc375" stroke-width="1"/>
          <rect id="Rectangle_70" data-name="Rectangle 70" width="0.938" height="2.813" transform="translate(46.873 44.297)" fill="#dcc375" stroke="#dcc375" stroke-width="1"/>
          <rect id="Rectangle_71" data-name="Rectangle 71" width="2.813" height="2.813" transform="translate(50.624 44.297)" fill="#dcc375" stroke="#dcc375" stroke-width="1"/>
          <g id="Group_24" data-name="Group 24" transform="translate(2.536 20.29)">
            <path id="Path_403" data-name="Path 403" d="M56.3,230.014H44.888a.888.888,0,0,1-.888-.888V194.888a.888.888,0,0,1,.888-.888H56.3a.888.888,0,0,1,.888.888v34.239A.888.888,0,0,1,56.3,230.014Zm-10.525-1.775h9.638V195.775H45.775Z" transform="translate(-44 -194)" fill="#dcc375" stroke="#dcc375" stroke-width="1"/>
          </g>
          <g id="Group_25" data-name="Group 25" transform="translate(0 16.485)">
            <path id="Path_404" data-name="Path 404" d="M38.837,169.58H24.888a.888.888,0,0,1-.888-.888v-3.8a.888.888,0,0,1,.888-.888H38.837a.888.888,0,0,1,.888.888v3.8A.888.888,0,0,1,38.837,169.58ZM25.775,167.8H37.949v-2.029H25.775Z" transform="translate(-24 -164)" fill="#dcc375" stroke="#dcc375" stroke-width="1"/>
          </g>
          <rect id="Rectangle_72" data-name="Rectangle 72" width="2.813" height="3.751" transform="translate(9.367 24.607)" fill="#dcc375" stroke="#dcc375" stroke-width="1"/>
          <rect id="Rectangle_73" data-name="Rectangle 73" width="3.751" height="3.751" transform="translate(5.616 24.607)" fill="#dcc375" stroke="#dcc375" stroke-width="1"/>
          <rect id="Rectangle_74" data-name="Rectangle 74" width="2.813" height="3.751" transform="translate(9.367 28.357)" fill="#dcc375" stroke="#dcc375" stroke-width="1"/>
          <rect id="Rectangle_75" data-name="Rectangle 75" width="3.751" height="3.751" transform="translate(5.616 28.357)" fill="#dcc375" stroke="#dcc375" stroke-width="1"/>
          <rect id="Rectangle_76" data-name="Rectangle 76" width="2.813" height="1.875" transform="translate(9.367 33.045)" fill="#dcc375" stroke="#dcc375" stroke-width="1"/>
          <rect id="Rectangle_77" data-name="Rectangle 77" width="3.751" height="1.875" transform="translate(5.616 33.045)" fill="#dcc375" stroke="#dcc375" stroke-width="1"/>
          <rect id="Rectangle_78" data-name="Rectangle 78" width="2.813" height="1.875" transform="translate(9.367 36.796)" fill="#dcc375" stroke="#dcc375" stroke-width="1"/>
          <rect id="Rectangle_79" data-name="Rectangle 79" width="3.751" height="1.875" transform="translate(5.616 36.796)" fill="#dcc375" stroke="#dcc375" stroke-width="1"/>
          <rect id="Rectangle_80" data-name="Rectangle 80" width="2.813" height="1.875" transform="translate(9.367 40.547)" fill="#dcc375" stroke="#dcc375" stroke-width="1"/>
          <rect id="Rectangle_81" data-name="Rectangle 81" width="3.751" height="1.875" transform="translate(5.616 40.547)" fill="#dcc375" stroke="#dcc375" stroke-width="1"/>
          <rect id="Rectangle_82" data-name="Rectangle 82" width="2.813" height="2.813" transform="translate(9.367 44.297)" fill="#dcc375" stroke="#dcc375" stroke-width="1"/>
          <rect id="Rectangle_83" data-name="Rectangle 83" width="3.751" height="2.813" transform="translate(5.616 44.297)" fill="#dcc375" stroke="#dcc375" stroke-width="1"/>
          <rect id="Rectangle_84" data-name="Rectangle 84" width="2.813" height="5.626" transform="translate(18.743 33.045)" fill="#dcc375" stroke="#dcc375" stroke-width="1"/>
          <rect id="Rectangle_85" data-name="Rectangle 85" width="3.751" height="5.626" transform="translate(21.556 33.045)" fill="#dcc375" stroke="#dcc375" stroke-width="1"/>
          <rect id="Rectangle_86" data-name="Rectangle 86" width="0.938" height="5.626" transform="translate(27.182 33.045)" fill="#dcc375" stroke="#dcc375" stroke-width="1"/>
          <rect id="Rectangle_87" data-name="Rectangle 87" width="1.875" height="5.626" transform="translate(30.933 33.045)" fill="#dcc375" stroke="#dcc375" stroke-width="1"/>
          <rect id="Rectangle_88" data-name="Rectangle 88" width="1.875" height="5.626" transform="translate(34.683 33.045)" fill="#dcc375" stroke="#dcc375" stroke-width="1"/>
          <rect id="Rectangle_89" data-name="Rectangle 89" width="0.938" height="5.626" transform="translate(37.496 33.045)" fill="#dcc375" stroke="#dcc375" stroke-width="1"/>
          <rect id="Rectangle_90" data-name="Rectangle 90" width="2.813" height="6.564" transform="translate(18.743 40.547)" fill="#dcc375" stroke="#dcc375" stroke-width="1"/>
          <rect id="Rectangle_91" data-name="Rectangle 91" width="3.751" height="6.564" transform="translate(21.556 40.547)" fill="#dcc375" stroke="#dcc375" stroke-width="1"/>
          <rect id="Rectangle_92" data-name="Rectangle 92" width="0.938" height="6.564" transform="translate(27.182 40.547)" fill="#dcc375" stroke="#dcc375" stroke-width="1"/>
          <rect id="Rectangle_93" data-name="Rectangle 93" width="1.875" height="6.564" transform="translate(30.933 40.547)" fill="#dcc375" stroke="#dcc375" stroke-width="1"/>
          <rect id="Rectangle_94" data-name="Rectangle 94" width="1.875" height="6.564" transform="translate(34.683 40.547)" fill="#dcc375" stroke="#dcc375" stroke-width="1"/>
          <rect id="Rectangle_95" data-name="Rectangle 95" width="0.938" height="6.564" transform="translate(37.496 40.547)" fill="#dcc375" stroke="#dcc375" stroke-width="1"/>
          <g id="Group_26" data-name="Group 26" transform="translate(0 54.528)">
            <path id="Path_405" data-name="Path 405" d="M81.952,465.775H24.888a.888.888,0,1,1,0-1.775H81.952a.888.888,0,1,1,0,1.775Z" transform="translate(-24 -464)" fill="#dcc375" stroke="#dcc375" stroke-width="1"/>
          </g>
          <g id="Group_27" data-name="Group 27" transform="translate(22.826 49.456)">
            <path id="Path_406" data-name="Path 406" d="M216.3,430.848H204.888a.888.888,0,0,1-.888-.888v-5.072a.888.888,0,0,1,.888-.888H216.3a.888.888,0,0,1,.888.888v5.072A.888.888,0,0,1,216.3,430.848Zm-10.525-1.775h9.638v-3.3h-9.638Z" transform="translate(-204 -424)" fill="#dcc375" stroke="#dcc375" stroke-width="1"/>
          </g>
        </g>
      </g>
    </g>
    <path id="Path_407" data-name="Path 407" d="M37.443-110.172l1.987,4.026,4.443.646-3.215,3.134.759,4.425-3.974-2.089-3.974,2.089.759-4.425L31.013-105.5l4.443-.646Z" transform="translate(-8.191 110.172)" fill="#dcc375" stroke="#dcc375" stroke-width="1"/>
  </g>
</svg>
