<svg xmlns="http://www.w3.org/2000/svg" width="55.436" height="77.38" viewBox="0 0 55.436 77.38">
  <g id="noun_furniture_1048118" transform="translate(-13.83 -1.25)">
    <path id="Path_10341" data-name="Path 10341" d="M17.778,80.894H65.333l.787,7.181h3.146V45.5H13.83V88.076h3.146ZM67.708,86.5h-.181l-.614-5.6H67.7Zm0-39.421v15.33H15.4V47.073ZM15.4,63.984H67.708V79.321H15.4ZM15.584,86.5H15.4V80.894h.787Z" transform="translate(0 -9.446)" fill="#dcc375"/>
    <rect id="Rectangle_2212" data-name="Rectangle 2212" width="19.255" height="1.573" transform="translate(33.561 24.336) rotate(-45)" fill="#dcc375"/>
    <rect id="Rectangle_2213" data-name="Rectangle 2213" width="6.741" height="1.573" transform="translate(43.677 22.563) rotate(-45)" fill="#dcc375"/>
    <path id="Path_10342" data-name="Path 10342" d="M66.989,49H17.83V61.978H66.989ZM65.416,60.4H19.4V50.573H65.416Z" transform="translate(-0.854 -10.193)" fill="#dcc375"/>
    <path id="Path_10343" data-name="Path 10343" d="M66.989,70.5H17.83V83.478H66.989ZM65.416,81.9H19.4V72.073H65.416Z" transform="translate(-0.854 -14.782)" fill="#dcc375"/>
    <circle id="Ellipse_72" data-name="Ellipse 72" cx="1.227" cy="1.227" r="1.227" transform="translate(40.329 44.069)" fill="#dcc375"/>
    <circle id="Ellipse_73" data-name="Ellipse 73" cx="1.227" cy="1.227" r="1.227" transform="translate(40.329 60.98)" fill="#dcc375"/>
    <path id="Path_10344" data-name="Path 10344" d="M66.989,5.183H55.615C54.1,2.862,48.843,1.25,42.417,1.25s-11.688,1.573-13.2,3.933H17.83V34.875H66.989ZM65.416,33.3H19.4V6.756H30.21l.2-.488c.669-1.644,5.451-3.414,12-3.414s11.334,1.77,12,3.414l.2.488H65.416Z" transform="translate(-0.854)" fill="#dcc375"/>
    <path id="Path_10345" data-name="Path 10345" d="M43.282,5.5c-4.562,0-9.887.975-11.452,3.091H21.92V32.471H64.653V8.591h-9.91C53.169,6.475,47.852,5.5,43.282,5.5Zm19.8,25.4H23.493V10.164h9.289l.2-.464c.566-1.266,4.656-2.627,10.3-2.627s9.73,1.361,10.3,2.627l.2.464h9.3Z" transform="translate(-1.727 -0.907)" fill="#dcc375"/>
  </g>
</svg>
